<svg xmlns="http://www.w3.org/2000/svg" style="display: none;">
  <!-- Favicon -->
  <symbol id="favicon" viewBox="0 0 32 32">
    <rect width="32" height="32" rx="6" fill="#4f46e5"/>
    <text x="16" y="22" text-anchor="middle" fill="white" font-size="18" font-weight="bold" font-family="Inter, sans-serif">BT</text>
  </symbol>
  
  <!-- Technology Icons -->
  <symbol id="java-icon" viewBox="0 0 24 24">
    <path fill="#f89820" d="M8.851 18.56s-.917.534.653.714c1.902.218 2.874.187 4.969-.211 0 0 .552.346 1.321.646-4.699 2.013-10.633-.118-6.943-1.149M8.276 15.933s-1.028.761.542.924c2.032.209 3.636.227 6.413-.308 0 0 .384.389.987.602-5.679 1.661-12.007.13-7.942-1.218"/>
    <path fill="#5382a1" d="M13.116 11.475c1.158 1.333-.304 2.533-.304 2.533s2.939-1.518 1.589-3.418c-1.261-1.772-2.228-2.652 3.007-5.688 0-.001-8.216 2.051-4.292 6.573"/>
    <path fill="#f89820" d="M19.33 20.504s.679.559-.747.991c-2.712.822-11.288 1.069-13.669.033-.856-.373.75-.89 1.254-.998.527-.114.828-.093.828-.093-.953-.671-6.156 1.317-2.643 1.887 9.58 1.553 17.462-.7 14.977-1.82M9.292 13.21s-4.362 1.036-1.544 1.412c1.189.159 3.561.123 5.77-.062 1.806-.152 3.618-.477 3.618-.477s-.637.272-1.098.587c-4.429 1.165-12.986.623-10.522-.568 2.082-1.006 3.776-.892 3.776-.892M17.116 17.584c4.503-2.34 2.421-4.589.968-4.285-.355.074-.515.138-.515.138s.132-.207.385-.297c2.875-1.011 5.086 2.981-.928 4.562 0-.001.07-.062.09-.118"/>
    <path fill="#5382a1" d="M14.401 0s2.494 2.494-2.365 6.33c-3.896 3.077-.888 4.832-.001 6.836-2.274-2.053-3.943-3.858-2.824-5.539 1.644-2.469 6.197-3.665 5.19-7.627"/>
    <path fill="#f89820" d="M9.734 23.924c4.322.277 10.959-.153 11.116-2.198 0 0-.302.775-3.572 1.391-3.688.694-8.239.613-10.937.168 0-.001.553.457 3.393.639"/>
  </symbol>

  <!-- Cloud Icon -->
  <symbol id="cloud-icon" viewBox="0 0 24 24">
    <path fill="#0ea5e9" d="M19.35 10.04A7.49 7.49 0 0 0 12 4C9.11 4 6.6 5.64 5.35 8.04A5.994 5.994 0 0 0 0 14c0 3.31 2.69 6 6 6h13c2.76 0 5-2.24 5-5 0-2.64-2.05-4.78-4.65-4.96z"/>
  </symbol>

  <!-- Database Icon -->
  <symbol id="database-icon" viewBox="0 0 24 24">
    <ellipse cx="12" cy="5" rx="9" ry="3" fill="#059669"/>
    <path d="M21 12c0 1.66-4.03 3-9 3s-9-1.34-9-3" fill="none" stroke="#059669" stroke-width="2"/>
    <path d="M3 5v14c0 1.66 4.03 3 9 3s9-1.34 9-3V5" fill="none" stroke="#059669" stroke-width="2"/>
  </symbol>

  <!-- Analytics Icon -->
  <symbol id="analytics-icon" viewBox="0 0 24 24">
    <path fill="#f59e0b" d="M3 3v18h18"/>
    <path fill="none" stroke="#6b7280" stroke-width="2" d="M9 9l1.5-1.5L14 11l3.5-3.5"/>
    <rect x="7" y="13" width="2" height="7" fill="#f59e0b"/>
    <rect x="11" y="9" width="2" height="11" fill="#ef4444"/>
    <rect x="15" y="11" width="2" height="9" fill="#10b981"/>
    <rect x="19" y="7" width="2" height="13" fill="#8b5cf6"/>
  </symbol>

  <!-- Code Icon -->
  <symbol id="code-icon" viewBox="0 0 24 24">
    <path fill="none" stroke="#4f46e5" stroke-width="2" d="M16 18l6-6-6-6M8 6l-6 6 6 6"/>
  </symbol>

  <!-- Web Icon -->
  <symbol id="web-icon" viewBox="0 0 24 24">
    <rect x="3" y="4" width="18" height="14" rx="2" fill="#4f46e5"/>
    <rect x="5" y="6" width="14" height="10" rx="1" fill="white"/>
    <circle cx="7" cy="8" r="1" fill="#ef4444"/>
    <circle cx="9" cy="8" r="1" fill="#f59e0b"/>
    <circle cx="11" cy="8" r="1" fill="#10b981"/>
    <rect x="7" y="11" width="8" height="1" fill="#6b7280"/>
    <rect x="7" y="13" width="10" height="1" fill="#6b7280"/>
    <rect x="7" y="15" width="6" height="1" fill="#6b7280"/>
  </symbol>

  <!-- GitHub Icon -->
  <symbol id="github-icon" viewBox="0 0 24 24">
    <path fill="currentColor" d="M12 0c-6.626 0-12 5.373-12 12 0 5.302 3.438 9.8 8.207 11.387.599.111.793-.261.793-.577v-2.234c-3.338.726-4.033-1.416-4.033-1.416-.546-1.387-1.333-1.756-1.333-1.756-1.089-.745.083-.729.083-.729 1.205.084 1.839 1.237 1.839 1.237 1.07 1.834 2.807 1.304 3.492.997.107-.775.418-1.305.762-1.604-2.665-.305-5.467-1.334-5.467-5.931 0-1.311.469-2.381 1.236-3.221-.124-.303-.535-1.524.117-3.176 0 0 1.008-.322 3.301 1.23.957-.266 1.983-.399 3.003-.404 1.02.005 2.047.138 3.006.404 2.291-1.552 3.297-1.23 3.297-1.23.653 1.653.242 2.874.118 3.176.77.84 1.235 1.911 1.235 3.221 0 4.609-2.807 5.624-5.479 5.921.43.372.823 1.102.823 2.222v3.293c0 .319.192.694.801.576 4.765-1.589 8.199-6.086 8.199-11.386 0-6.627-5.373-12-12-12z"/>
  </symbol>

  <!-- LinkedIn Icon -->
  <symbol id="linkedin-icon" viewBox="0 0 24 24">
    <path fill="currentColor" d="M20.447 20.452h-3.554v-5.569c0-1.328-.027-3.037-1.852-3.037-1.853 0-2.136 1.445-2.136 2.939v5.667H9.351V9h3.414v1.561h.046c.477-.9 1.637-1.85 3.37-1.85 3.601 0 4.267 2.37 4.267 5.455v6.286zM5.337 7.433c-1.144 0-2.063-.926-2.063-2.065 0-1.138.92-2.063 2.063-2.063 1.14 0 2.064.925 2.064 2.063 0 1.139-.925 2.065-2.064 2.065zm1.782 13.019H3.555V9h3.564v11.452zM22.225 0H1.771C.792 0 0 .774 0 1.729v20.542C0 23.227.792 24 1.771 24h20.451C23.2 24 24 23.227 24 22.271V1.729C24 .774 23.2 0 22.222 0h.003z"/>
  </symbol>

  <!-- Email Icon -->
  <symbol id="email-icon" viewBox="0 0 24 24">
    <path fill="none" stroke="currentColor" stroke-width="2" d="M4 4h16c1.1 0 2 .9 2 2v12c0 1.1-.9 2-2 2H4c-1.1 0-2-.9-2-2V6c0-1.1.9-2 2-2z"/>
    <polyline fill="none" stroke="currentColor" stroke-width="2" points="22,6 12,13 2,6"/>
  </symbol>

  <!-- Location Icon -->
  <symbol id="location-icon" viewBox="0 0 24 24">
    <path fill="currentColor" d="M21 10c0 7-9 13-9 13s-9-6-9-13a9 9 0 0 1 18 0z"/>
    <circle fill="white" cx="12" cy="10" r="3"/>
  </symbol>

  <!-- Download Icon -->
  <symbol id="download-icon" viewBox="0 0 24 24">
    <path fill="none" stroke="currentColor" stroke-width="2" d="M21 15v4a2 2 0 0 1-2 2H5a2 2 0 0 1-2-2v-4"/>
    <polyline fill="none" stroke="currentColor" stroke-width="2" points="7,10 12,15 17,10"/>
    <line fill="none" stroke="currentColor" stroke-width="2" x1="12" y1="15" x2="12" y2="3"/>
  </symbol>

  <!-- External Link Icon -->
  <symbol id="external-link-icon" viewBox="0 0 24 24">
    <path fill="none" stroke="currentColor" stroke-width="2" d="M18 13v6a2 2 0 0 1-2 2H5a2 2 0 0 1-2-2V8a2 2 0 0 1 2-2h6"/>
    <polyline fill="none" stroke="currentColor" stroke-width="2" points="15,3 21,3 21,9"/>
    <line fill="none" stroke="currentColor" stroke-width="2" x1="10" y1="14" x2="21" y2="3"/>
  </symbol>

  <!-- Success Checkmark -->
  <symbol id="success-icon" viewBox="0 0 24 24">
    <path fill="currentColor" d="M12 2C6.48 2 2 6.48 2 12s4.48 10 10 10 10-4.48 10-10S17.52 2 12 2zm-2 15l-5-5 1.41-1.41L10 14.17l7.59-7.59L19 8l-9 9z"/>
  </symbol>

  <!-- Error Icon -->
  <symbol id="error-icon" viewBox="0 0 24 24">
    <path fill="currentColor" d="M12 2C6.48 2 2 6.48 2 12s4.48 10 10 10 10-4.48 10-10S17.52 2 12 2zm1 15h-2v-2h2v2zm0-4h-2V7h2v6z"/>
  </symbol>

  <!-- Menu/Hamburger Icon -->
  <symbol id="menu-icon" viewBox="0 0 24 24">
    <line fill="none" stroke="currentColor" stroke-width="2" x1="3" y1="6" x2="21" y2="6"/>
    <line fill="none" stroke="currentColor" stroke-width="2" x1="3" y1="12" x2="21" y2="12"/>
    <line fill="none" stroke="currentColor" stroke-width="2" x1="3" y1="18" x2="21" y2="18"/>
  </symbol>

  <!-- Close Icon -->
  <symbol id="close-icon" viewBox="0 0 24 24">
    <line fill="none" stroke="currentColor" stroke-width="2" x1="18" y1="6" x2="6" y2="18"/>
    <line fill="none" stroke="currentColor" stroke-width="2" x1="6" y1="6" x2="18" y2="18"/>
  </symbol>

  <!-- Arrow Up Icon -->
  <symbol id="arrow-up-icon" viewBox="0 0 24 24">
    <line fill="none" stroke="currentColor" stroke-width="2" x1="12" y1="19" x2="12" y2="5"/>
    <polyline fill="none" stroke="currentColor" stroke-width="2" points="5,12 12,5 19,12"/>
  </symbol>

  <!-- Arrow Down Icon -->
  <symbol id="arrow-down-icon" viewBox="0 0 24 24">
    <line fill="none" stroke="currentColor" stroke-width="2" x1="12" y1="5" x2="12" y2="19"/>
    <polyline fill="none" stroke="currentColor" stroke-width="2" points="19,12 12,19 5,12"/>
  </symbol>
</svg>
